<svg width="365" height="365" viewBox="0 0 365 365" fill="none" xmlns="http://www.w3.org/2000/svg">
<path d="M244.609 184.272H238.867V218.708C240.292 218.144 241.762 217.704 243.261 217.392V196.956C247.165 195.965 250.764 194.023 253.741 191.302C256.717 188.58 258.978 185.163 260.323 181.354C257.242 180.008 254.37 178.224 251.795 176.059C251.142 179.959 249.202 184.272 244.639 184.272H244.609Z" fill="#3A5690"/>
<path d="M230.105 196.667V215.951C231.674 216.923 233.143 218.046 234.493 219.305V179.853H231.23C230.853 179.842 230.477 179.803 230.105 179.737C229.414 179.699 228.74 179.509 228.128 179.183C227.517 178.856 226.984 178.4 226.566 177.846C226.148 177.292 225.855 176.653 225.708 175.975C225.56 175.296 225.562 174.593 225.712 173.914V166.635C225.696 166.336 225.741 166.036 225.845 165.755C225.948 165.474 226.107 165.217 226.313 165C226.518 164.782 226.766 164.609 227.04 164.491C227.314 164.372 227.61 164.311 227.909 164.311C228.207 164.311 228.503 164.372 228.777 164.491C229.051 164.609 229.299 164.782 229.504 165C229.71 165.217 229.869 165.474 229.973 165.755C230.076 166.036 230.121 166.336 230.105 166.635L230.033 174.77C230.003 174.945 230.033 175.449 230.099 175.449H234.493V166.641C234.493 166.346 234.55 166.053 234.662 165.78C234.858 165.308 235.212 164.918 235.662 164.679C236.112 164.439 236.631 164.363 237.131 164.465C237.63 164.567 238.079 164.839 238.4 165.236C238.722 165.633 238.896 166.13 238.893 166.641V179.853H244.611C247.107 179.853 247.632 174.308 247.632 172.932V171.967C245.865 169.907 244.34 167.65 243.087 165.24C242.64 164.379 242.211 163.499 241.83 162.595C240.033 158.286 239.108 153.661 239.111 148.989C239.111 148.898 239.111 148.801 239.111 148.71C238.506 148.662 237.854 148.613 237.219 148.613C231.361 148.628 225.703 150.751 221.272 154.597C216.841 158.442 213.931 163.755 213.071 169.57C212.21 175.385 213.455 181.317 216.581 186.289C219.707 191.262 224.505 194.944 230.105 196.667V196.667Z" fill="#3A5690"/>
<path d="M121.545 227.408C124.126 224.366 127.344 221.933 130.969 220.282C134.594 218.631 138.537 217.802 142.517 217.854C147.036 217.855 151.479 219.02 155.421 221.239V52H107.07V217.599C112.788 219.251 117.842 222.668 121.515 227.366L121.545 227.408ZM120.276 193.087H124.67V201.907H120.276V193.087ZM120.276 179.863H124.67V188.677H120.276V179.863ZM120.276 166.64H124.67V175.453H120.276V166.64ZM120.276 153.41H124.67V162.26H120.276V153.41ZM120.276 140.186H124.67V149.006H120.276V140.186ZM120.276 126.963H124.67V135.776H120.276V126.963ZM120.276 113.739H124.67V122.553H120.276V113.739ZM120.276 100.509H124.67V109.329H120.276V100.509ZM120.276 87.2854H124.67V96.0992H120.276V87.2854ZM142.239 96.0992H137.845V87.2854H142.239V96.0992ZM142.239 109.329H137.845V100.509H142.239V109.329ZM142.239 122.553H137.845V113.733H142.239V122.553ZM142.239 135.782H137.845V126.963H142.239V135.782ZM142.239 149.006H137.845V140.186H142.239V149.006ZM142.239 162.23H137.845V153.41H142.239V162.23ZM142.239 175.453H137.845V166.64H142.239V175.453ZM142.239 188.683H137.845V179.851H142.239V188.683ZM142.239 201.907H137.845V193.087H142.239V201.907ZM129.064 193.087H133.457V201.907H129.064V193.087ZM129.064 179.863H133.457V188.677H129.064V179.863ZM129.064 166.64H133.457V175.453H129.064V166.64ZM129.064 153.41H133.457V162.26H129.064V153.41ZM129.064 140.186H133.457V149.006H129.064V140.186ZM129.064 126.963H133.457V135.776H129.064V126.963ZM129.064 113.739H133.457V122.553H129.064V113.739ZM129.064 100.509H133.457V109.329H129.064V100.509ZM133.457 96.0992H129.064V87.2854H133.457V96.0992ZM142.239 69.6518V82.8755H137.845V69.6518H142.239ZM133.457 69.6518V82.8755H129.064V69.6518H133.457ZM120.276 69.6518H124.67V82.8755H120.276V69.6518Z" fill="#3A5690"/>
<path d="M73.7883 239.584C73.7272 236.556 74.317 233.55 75.5174 230.77C76.7178 227.991 78.5007 225.504 80.7447 223.479C82.0859 222.264 83.5599 221.206 85.1386 220.325C85.6281 220.046 86.1177 219.791 86.6253 219.542H85.1386V210.722H93.9262V217.158C95.8723 216.782 97.8491 216.589 99.831 216.582C100.793 216.586 101.753 216.644 102.708 216.758V149.008H50V245.971H74.3262L74.2839 245.656C73.9614 243.65 73.7957 241.622 73.7883 239.59V239.584ZM58.7877 197.499H67.5693V206.319H58.7877V197.499ZM58.7877 184.275H67.5693V193.089H58.7877V184.275ZM58.7877 171.051H67.5693V179.853H58.7877V171.051ZM80.7447 179.853H71.9631V171.051H80.7447V179.853ZM80.7447 193.077H71.9631V184.275H80.7447V193.077ZM71.9631 197.487H80.7447V206.306H71.9631V197.487ZM93.9262 206.306H85.1386V197.499H93.9262V206.306ZM93.9262 193.077H85.1386V184.275H93.9262V193.077ZM93.9262 179.853H85.1386V171.051H93.9262V179.853ZM93.9262 166.629H85.1386V157.822H93.9262V166.629ZM80.7447 166.629H71.9631V157.822H80.7447V166.629ZM58.7877 157.822H67.5693V166.641H58.7877V157.822ZM58.7877 210.722H67.5693V219.542H58.7877V210.722ZM71.9631 210.722H80.7447V219.542H71.9631V210.722Z" fill="#3A5690"/>
<path d="M169.763 244.7L169.805 245.992H188.541L188.498 245.677C188.179 243.67 188.013 241.643 188.003 239.611C188.011 234.373 189.494 229.243 192.279 224.813C195.064 220.383 199.039 216.833 203.747 214.571V122.551H159.809V224.294C162.779 226.823 165.197 229.942 166.91 233.453C168.623 236.965 169.594 240.794 169.763 244.7V244.7ZM194.953 188.681H190.559V184.271H194.953V188.681ZM177.378 184.271H186.166V188.675H177.378V184.271ZM177.378 171.048H186.166V179.849H177.378V171.048ZM177.378 157.818H186.166V166.638H177.378V157.818ZM177.378 144.594H186.166V153.408H177.378V144.594ZM194.953 153.408H190.559V144.594H194.953V153.408ZM194.953 166.638H190.559V157.818H194.953V166.638ZM194.953 179.862H190.559V171.048H194.953V179.862ZM194.953 140.184H190.559V131.371H194.953V140.184ZM186.166 140.184H177.378V131.371H186.166V140.184ZM168.596 131.371H172.984V140.184H168.596V131.371ZM168.596 144.594H172.984V153.408H168.596V144.594ZM168.596 157.818H172.984V166.638H168.596V157.818ZM168.596 171.048H172.984V179.849H168.596V171.048ZM168.596 184.271H172.984V188.675H168.596V184.271ZM168.596 193.085H194.947V197.495H168.59V193.085H168.596ZM168.596 201.905H194.947V206.315H168.596V201.905ZM168.596 210.719H194.947V215.129H168.596V210.719Z" fill="#3A5690"/>
<path d="M247.633 164.412C250.811 169.929 255.609 174.327 261.371 177.004C263.982 178.217 266.752 179.052 269.596 179.485V225.95C270.031 226.43 270.467 226.891 270.866 227.394C271.816 226.273 272.862 225.236 273.99 224.294V157.818H267.946C262.712 157.818 260.809 153.25 260.809 150.187V140.184C260.838 139.62 261.083 139.088 261.491 138.698C261.9 138.309 262.442 138.092 263.006 138.092C263.569 138.092 264.111 138.309 264.52 138.698C264.929 139.088 265.173 139.62 265.202 140.184V150.187C265.202 150.927 265.444 153.408 267.946 153.408H273.99V140.184C273.99 139.889 274.048 139.596 274.159 139.323C274.355 138.851 274.709 138.462 275.159 138.222C275.609 137.982 276.128 137.907 276.627 138.008C277.127 138.11 277.576 138.382 277.897 138.779C278.219 139.176 278.393 139.673 278.39 140.184V166.638H283.557C283.97 166.666 284.384 166.602 284.77 166.451C285.155 166.3 285.503 166.065 285.788 165.764C287.196 164.224 287.268 160.99 287.184 159.977V149.004C287.184 148.42 287.415 147.86 287.826 147.447C288.238 147.034 288.796 146.802 289.378 146.802C289.959 146.802 290.518 147.034 290.929 147.447C291.34 147.86 291.572 148.42 291.572 149.004V159.783C291.614 160.196 291.97 165.528 289.027 168.749C288.334 169.496 287.491 170.087 286.553 170.483C285.615 170.88 284.605 171.072 283.588 171.048H278.42V221.267C279.823 220.488 281.291 219.834 282.808 219.314V178.673C288.305 177.085 293.253 173.991 297.095 169.739C300.938 165.486 303.524 160.242 304.562 154.597C305.6 148.951 305.051 143.126 302.974 137.777C300.898 132.428 297.377 127.765 292.807 124.312C288.237 120.859 282.798 118.753 277.102 118.23C271.406 117.707 265.677 118.788 260.559 121.351C255.44 123.914 251.135 127.858 248.126 132.741C245.117 137.623 243.523 143.251 243.523 148.992C243.523 149.156 243.523 149.307 243.523 149.471C243.6 154.724 245.014 159.869 247.633 164.418V164.412Z" fill="#3A5690"/>
<path d="M159.811 245.971H165.377C165.192 240.552 163.236 235.344 159.811 231.152C158.539 229.56 157.064 228.145 155.423 226.942C151.659 224.238 147.148 222.783 142.519 222.781C133.061 222.781 124.95 227.433 121.439 235.628C119.904 231.748 117.353 228.356 114.054 225.813C110.756 223.269 106.834 221.668 102.703 221.179C101.751 221.048 100.793 220.975 99.8322 220.961C94.5012 220.982 89.3292 222.785 85.1337 226.087C84.2996 226.773 83.5196 227.524 82.8008 228.331C79.7692 231.712 78.1183 236.115 78.1773 240.663C78.1773 242.101 78.3526 241.561 78.6004 245.965H159.811V245.971Z" fill="#3A5690"/>
<path d="M291.861 222.811C288.767 222.804 285.697 223.353 282.796 224.431C281.255 225.002 279.781 225.742 278.402 226.639C275.023 228.818 272.367 231.958 270.775 235.659C270.435 234.853 270.05 234.067 269.62 233.305C267.641 229.588 264.694 226.48 261.093 224.311C257.493 222.143 253.373 220.995 249.174 220.991C247.175 221.016 245.189 221.311 243.269 221.871C241.751 222.278 240.279 222.841 238.876 223.551C237.413 224.276 236.028 225.148 234.742 226.153C234.657 226.044 234.56 225.947 234.482 225.832C233.227 224.125 231.751 222.593 230.094 221.276C226.01 217.995 220.935 216.205 215.704 216.199C211.447 216.219 207.289 217.484 203.737 219.839C200.279 222.108 197.433 225.2 195.453 228.839C193.473 232.479 192.419 236.553 192.387 240.699C192.387 242.137 192.562 241.591 192.81 246.001H314.719C314.211 232.771 304.215 222.817 291.861 222.817V222.811Z" fill="#3A5690"/>
<path d="M287 208.007C287 204.952 288.079 202.354 290.237 200.212C292.395 198.071 294.987 197 298.014 197C301.032 197 303.615 198.075 305.763 200.226C307.921 202.368 309 204.961 309 208.007C309 211.053 307.921 213.646 305.763 215.788C303.605 217.929 301.022 219 298.014 219C294.987 219 292.395 217.925 290.237 215.774C288.079 213.623 287 211.034 287 208.007ZM288.26 208.007C288.26 210.691 289.215 212.98 291.125 214.874C293.035 216.768 295.331 217.715 298.014 217.715C300.688 217.715 302.98 216.763 304.889 214.86C306.799 212.956 307.754 210.672 307.754 208.007C307.754 205.333 306.799 203.044 304.889 201.14C302.989 199.237 300.697 198.285 298.014 198.285C295.331 198.285 293.035 199.232 291.125 201.126C289.215 203.02 288.26 205.314 288.26 208.007ZM303.328 214.874H301.051L299.49 211.533C298.687 209.82 297.833 208.964 296.926 208.964H295.622V214.874H293.746V200.883H297.628C299.232 200.883 300.483 201.221 301.38 201.897C302.278 202.573 302.727 203.505 302.727 204.695C302.727 205.637 302.411 206.451 301.781 207.136C301.151 207.822 300.277 208.278 299.16 208.507V208.578C299.934 208.73 300.707 209.597 301.48 211.177L303.328 214.874ZM295.622 202.496V207.35H297.771C299.728 207.35 300.707 206.537 300.707 204.909C300.707 204.034 300.444 203.415 299.919 203.053C299.394 202.682 298.559 202.496 297.413 202.496H295.622Z" fill="#3A5690"/>
<path d="M70.7733 289.435C70.7733 287.308 70.1962 285.678 69.0422 284.546C67.8881 283.414 65.8049 282.312 62.7926 281.238C59.7803 280.165 57.4721 279.043 55.8682 277.872C54.2838 276.681 53.0906 275.335 52.2886 273.832C51.5062 272.31 51.1149 270.573 51.1149 268.622C51.1149 265.245 52.2397 262.464 54.4891 260.279C56.7582 258.093 59.7216 257 63.3794 257C65.8831 257 68.113 257.566 70.0691 258.698C72.0251 259.81 73.5313 261.362 74.5876 263.352C75.6438 265.343 76.172 267.529 76.172 269.91H70.7733C70.7733 267.275 70.1376 265.236 68.8661 263.791C67.5947 262.347 65.7658 261.625 63.3794 261.625C61.2082 261.625 59.526 262.23 58.3328 263.44C57.1396 264.65 56.543 266.348 56.543 268.534C56.543 270.329 57.1885 271.832 58.4795 273.042C59.7705 274.252 61.7657 275.335 64.465 276.291C68.6705 277.677 71.6731 279.384 73.4726 281.414C75.2917 283.444 76.2013 286.098 76.2013 289.376C76.2013 292.831 75.0766 295.602 72.8271 297.69C70.5777 299.759 67.5164 300.793 63.6435 300.793C61.1593 300.793 58.8609 300.256 56.7484 299.183C54.6554 298.09 53.0025 296.568 51.7898 294.616C50.5966 292.645 50 290.391 50 287.854H55.3987C55.3987 290.489 56.1322 292.538 57.5993 294.002C59.0859 295.465 61.1006 296.197 63.6435 296.197C66.0103 296.197 67.7903 295.592 68.9835 294.382C70.1767 293.172 70.7733 291.523 70.7733 289.435Z" fill="#3A5690"/>
<path d="M85.0352 268.534L85.1526 271.461C87.0891 269.119 89.6417 267.948 92.8105 267.948C96.351 267.948 98.8254 269.48 100.234 272.544C102.229 269.48 105.007 267.948 108.567 267.948C114.415 267.948 117.408 271.588 117.545 278.867V300.208H112.381V279.365C112.381 277.062 111.97 275.354 111.149 274.242C110.327 273.11 108.938 272.544 106.982 272.544C105.417 272.544 104.146 273.149 103.168 274.359C102.19 275.569 101.623 277.111 101.466 278.984V300.208H96.2434V279.131C96.1847 274.74 94.3949 272.544 90.874 272.544C88.2529 272.544 86.4045 273.852 85.3286 276.467V300.208H80.1647V268.534H85.0352Z" fill="#3A5690"/>
<path d="M139.318 300.208C139.005 299.524 138.78 298.373 138.643 296.753C136.804 299.446 134.457 300.793 131.601 300.793C128.726 300.793 126.477 299.993 124.853 298.393C123.249 296.773 122.447 294.499 122.447 291.572C122.447 288.352 123.542 285.795 125.733 283.902C127.924 282.009 130.927 281.043 134.741 281.004H138.555V277.638C138.555 275.745 138.135 274.398 137.294 273.598C136.452 272.798 135.171 272.398 133.45 272.398C131.885 272.398 130.614 272.866 129.636 273.803C128.658 274.72 128.169 275.891 128.169 277.316H122.975C122.975 275.696 123.454 274.154 124.413 272.691C125.371 271.207 126.662 270.046 128.286 269.207C129.909 268.368 131.719 267.948 133.714 267.948C136.961 267.948 139.426 268.758 141.108 270.378C142.81 271.978 143.68 274.32 143.719 277.404V293.387C143.739 295.826 144.071 297.944 144.717 299.739V300.208H139.318ZM132.394 296.08C133.665 296.08 134.878 295.729 136.032 295.026C137.186 294.324 138.027 293.445 138.555 292.392V284.839H135.621C133.156 284.878 131.21 285.434 129.782 286.508C128.354 287.561 127.64 289.045 127.64 290.957C127.64 292.753 128.002 294.06 128.726 294.88C129.45 295.68 130.672 296.08 132.394 296.08Z" fill="#3A5690"/>
<path d="M162.5 273.393C161.776 273.256 160.993 273.188 160.152 273.188C157.492 273.188 155.634 274.642 154.578 277.55V300.208H149.384V268.534H154.431L154.519 271.754C155.908 269.217 157.874 267.948 160.416 267.948C161.238 267.948 161.923 268.085 162.47 268.358L162.5 273.393Z" fill="#3A5690"/>
<path d="M173.563 260.864V268.534H178.346V272.72H173.563V292.362C173.563 293.611 173.769 294.558 174.18 295.202C174.59 295.846 175.295 296.168 176.292 296.168C176.977 296.168 177.671 296.051 178.375 295.817L178.317 300.208C177.143 300.598 175.94 300.793 174.708 300.793C172.654 300.793 171.089 300.061 170.013 298.597C168.937 297.134 168.399 295.065 168.399 292.392V272.72H163.558V268.534H168.399V260.864H173.563Z" fill="#3A5690"/>
<path d="M208.921 286.917C208.608 291.699 207.317 295.212 205.048 297.456C202.779 299.681 199.64 300.793 195.63 300.793C191.503 300.793 188.246 299.242 185.86 296.139C183.473 293.016 182.27 288.781 182.251 283.434V274.183C182.251 268.817 183.463 264.611 185.889 261.567C188.334 258.522 191.669 257 195.894 257C199.884 257 202.975 258.142 205.166 260.425C207.357 262.708 208.608 266.211 208.921 270.934H205.518C205.205 267.07 204.286 264.309 202.76 262.65C201.254 260.991 198.965 260.162 195.894 260.162C192.667 260.162 190.153 261.362 188.353 263.762C186.554 266.163 185.654 269.646 185.654 274.213V283.346C185.654 287.874 186.525 291.396 188.265 293.914C190.006 296.431 192.461 297.69 195.63 297.69C198.955 297.69 201.361 296.861 202.848 295.202C204.334 293.543 205.224 290.781 205.518 286.917H208.921Z" fill="#3A5690"/>
<path d="M217.814 300.208H214.528V268.534H217.814V300.208ZM214.058 259.4C214.058 258.737 214.244 258.171 214.616 257.703C214.987 257.234 215.516 257 216.2 257C216.885 257 217.413 257.234 217.785 257.703C218.176 258.171 218.371 258.737 218.371 259.4C218.371 260.064 218.176 260.63 217.785 261.098C217.413 261.547 216.885 261.772 216.2 261.772C215.516 261.772 214.987 261.547 214.616 261.098C214.244 260.63 214.058 260.064 214.058 259.4Z" fill="#3A5690"/>
<path d="M229.347 260.454V268.534H234.775V271.461H229.347V292.509C229.347 294.246 229.602 295.543 230.11 296.402C230.638 297.241 231.509 297.661 232.721 297.661C233.25 297.661 234.032 297.563 235.069 297.368L235.157 300.295C234.413 300.627 233.347 300.793 231.959 300.793C228.144 300.793 226.188 298.178 226.09 292.948V271.461H221.191V268.534H226.09V260.454H229.347Z" fill="#3A5690"/>
<path d="M247.922 294.85L255.492 268.534H258.984L247.805 305.272L247.189 307.028C245.683 311.009 243.374 313 240.264 313C239.521 313 238.739 312.863 237.917 312.59L237.888 309.604C238.338 309.741 238.836 309.809 239.384 309.809C240.793 309.809 241.947 309.39 242.846 308.55C243.746 307.711 244.489 306.355 245.076 304.481L246.426 300.003L236.45 268.534H240.03L247.922 294.85Z" fill="#3A5690"/>
<path d="M268.346 276.964H271.544C273.93 276.945 275.857 276.194 277.324 274.71C278.811 273.208 279.554 271.207 279.554 268.709C279.554 265.958 278.918 263.83 277.647 262.328C276.375 260.806 274.576 260.044 272.248 260.044C269.979 260.044 268.14 260.854 266.732 262.474C265.343 264.074 264.649 266.172 264.649 268.768H261.392C261.392 266.543 261.842 264.543 262.742 262.767C263.661 260.971 264.962 259.566 266.644 258.551C268.326 257.517 270.194 257 272.248 257C275.456 257 278.019 258.044 279.935 260.132C281.852 262.201 282.811 265.099 282.811 268.826C282.811 270.934 282.253 272.847 281.138 274.564C280.043 276.281 278.566 277.55 276.708 278.37C278.86 279.072 280.522 280.311 281.696 282.087C282.87 283.844 283.456 286.02 283.456 288.615C283.456 292.323 282.439 295.28 280.405 297.485C278.371 299.69 275.681 300.793 272.336 300.793C270.204 300.793 268.248 300.295 266.468 299.3C264.688 298.285 263.309 296.87 262.331 295.055C261.373 293.24 260.893 291.113 260.893 288.674H264.15C264.15 291.328 264.903 293.514 266.409 295.231C267.935 296.929 269.911 297.778 272.336 297.778C274.82 297.778 276.747 297.007 278.116 295.465C279.505 293.904 280.2 291.66 280.2 288.732C280.2 285.922 279.456 283.775 277.97 282.292C276.503 280.79 274.351 280.028 271.515 280.009H268.346V276.964Z" fill="#3A5690"/>
<path d="M289.767 300.208V257.585H299.831C304.467 257.585 308.134 259.069 310.834 262.035C313.533 264.982 314.922 269.051 315 274.242V283.17C315 288.518 313.631 292.694 310.892 295.699C308.173 298.705 304.349 300.208 299.42 300.208H289.767ZM293.112 260.747V297.105H299.596C303.41 297.105 306.364 295.934 308.457 293.592C310.55 291.23 311.626 287.864 311.685 283.492V274.564C311.685 270.193 310.658 266.797 308.604 264.377C306.569 261.957 303.616 260.747 299.743 260.747H293.112Z" fill="#3A5690"/>
</svg>
